<svg width="150" height="151" viewBox="0 0 150 151" fill="none" xmlns="http://www.w3.org/2000/svg">
<g clip-path="url(#clip0_329_107643)">
<path d="M15.889 74.9818L24.3649 74.9596C24.4284 89.8195 31.0405 104.492 43.6053 114.309C65.3015 131.26 96.4643 127.357 113.323 105.575C130.195 83.7727 126.257 52.3257 104.542 35.3602C87.5801 22.108 64.7828 21.6232 47.5948 32.4664C47.1498 32.7515 47.0146 33.3541 47.306 33.7926L51.1962 39.7699C51.332 39.9781 51.5433 40.1247 51.785 40.1784C52.0266 40.232 52.2794 40.1885 52.4893 40.057C53.0204 39.7187 53.5703 39.3949 54.1222 39.0879C58.7151 36.499 63.7049 34.8531 68.9538 34.1929C74.1645 33.5325 79.4545 33.8901 84.5334 35.246C89.7895 36.6556 94.6691 39.097 99.0102 42.4886C103.361 45.8876 106.911 50.0321 109.57 54.8065C112.142 59.4174 113.797 64.4871 114.442 69.732C115.109 74.9751 114.755 80.2971 113.401 85.4013C112 90.6948 109.586 95.5893 106.213 99.9597C102.84 104.33 98.724 107.894 93.9734 110.571C89.3806 113.16 84.3907 114.806 79.1419 115.466C73.8931 116.126 68.651 115.767 63.5622 114.413C58.3062 113.003 53.4266 110.562 49.0855 107.17C44.735 103.771 41.185 99.6267 38.5261 94.8524C35.9536 90.2414 34.2987 85.1717 33.6539 79.9268C33.4458 78.2727 33.3375 76.6061 33.3308 74.9436L42.3726 74.9266C42.5509 74.927 42.7256 74.8769 42.8767 74.7819C43.0277 74.6869 43.149 74.5509 43.2265 74.3895C43.3041 74.2282 43.3347 74.0481 43.315 73.8698C43.2952 73.6916 43.2258 73.5225 43.1148 73.3821L29.8054 56.505C29.4246 56.0268 28.6905 56.0258 28.3206 56.5051L15.1225 73.4488C14.6531 74.0764 15.1051 74.987 15.889 74.9818Z" fill="#CACACA"/>
</g>
<defs>
<clipPath id="clip0_329_107643">
<rect width="106.379" height="106.379" fill="white" transform="matrix(-0.788011 -0.615661 0.611014 -0.79162 84.4144 150.411)"/>
</clipPath>
</defs>
</svg>
