<svg width="100" height="71" viewBox="0 0 100 71" fill="none" xmlns="http://www.w3.org/2000/svg">
<path fill-rule="evenodd" clip-rule="evenodd" d="M38.8871 6.18575C50.5021 0.0170531 63.0062 -1.26115 73.2318 1.12853C96.5173 6.63034 98.3512 24.1361 85.9582 42.1976C80.2897 50.4781 71.898 58.4252 61.7836 63.4269C45.167 71.6518 29.2729 72.0964 18.825 65.7609C8.3215 59.4255 5.82068 48.7553 9.54413 37.4183C13.3787 25.6366 24.1045 13.5215 38.8871 6.18575Z" fill="#ED1C24"/>
<path d="M75.4548 19.5794C75.3992 20.2463 75.3992 20.9132 75.5103 21.5801C75.6215 22.3025 75.7882 23.0806 76.0661 23.803C76.4551 24.8589 77.0109 25.8037 77.6222 26.5817C78.1779 27.3042 78.8448 27.8599 79.6228 28.3045C80.5676 28.6935 81.4568 28.9158 82.1792 28.8603C82.7905 28.8603 83.2351 28.6935 83.5686 28.4157C83.7909 28.1934 83.9576 27.8599 84.0132 27.4153C84.1243 26.804 84.0132 26.026 83.8464 25.0257C83.7909 24.7478 83.7353 24.5255 83.6797 24.2476C83.6241 24.0253 83.513 23.7475 83.4574 23.5252C82.9573 22.247 82.2904 21.0799 81.4568 20.1907C80.7343 19.4127 79.8451 18.857 78.9004 18.5791C77.9 18.3012 77.0664 18.3012 76.4551 18.5235C76.0661 18.6902 75.7326 18.9681 75.5659 19.4127L75.4548 19.5794ZM75.0102 3.90759C79.9563 2.07366 84.8468 2.46268 89.0148 4.51891C93.3496 6.63072 96.8507 10.5765 98.6847 15.5225C99.7406 18.3012 100.13 21.1911 99.9629 23.9142C99.7961 26.6929 99.0737 29.3604 97.7399 31.7501C97.6843 31.8613 97.6288 32.028 97.462 32.2503C97.3509 32.4726 97.2397 32.6393 97.1842 32.7504C95.1835 36.0293 93.1273 38.419 91.071 40.1418C88.9592 41.8646 86.903 42.976 84.8468 43.7541C79.7895 45.6436 74.7879 45.2546 70.5643 43.1983C66.1184 41.031 62.5616 37.1408 60.7277 32.1391C59.7274 29.416 59.2272 26.6929 59.3384 24.0809C59.4495 21.4134 60.0608 18.857 61.2279 16.4673C62.1171 14.6889 63.5064 12.6327 65.3403 10.6876C66.952 8.96483 68.8971 7.2976 71.0644 5.85268C71.6202 5.46366 72.2315 5.13022 72.8428 4.79678C73.6764 4.46334 74.3433 4.12989 75.0102 3.90759Z" fill="white"/>
<path d="M51.8915 13.0209L60.3387 9.8532C61.1168 9.57533 61.9504 9.96433 62.2282 10.7424C62.2282 10.7979 62.2838 10.7979 62.2838 10.8535L74.2878 42.9197C74.3989 43.0864 74.4545 43.3087 74.4545 43.531C74.5101 43.9755 74.3433 44.4201 74.0099 44.698L70.0642 48.6438C69.8974 48.8105 69.7307 48.9216 69.5084 48.9772L62.5617 51.5336C62.1171 51.7003 61.6169 51.6447 61.2279 51.3669L53.392 46.1429L54.8925 50.0887C55.0036 50.311 55.1148 50.5888 55.1148 50.8667C55.1148 51.2557 54.948 51.6447 54.6702 51.867L50.7244 55.8128C50.5577 55.9795 50.391 56.0907 50.2243 56.1462L41.7215 59.314C40.9434 59.5918 40.1098 59.2028 39.832 58.4248L27.7168 26.0252C27.4945 25.4139 27.6613 24.747 28.1614 24.358L31.996 20.5234C32.1628 20.3567 32.3295 20.2455 32.5518 20.1899L39.9431 17.4668C40.3877 17.3001 40.8879 17.3557 41.2769 17.6335L48.5015 22.3573L47.1677 18.8006C46.9454 18.2448 47.1121 17.6335 47.5012 17.2445L51.3913 13.2988C51.558 13.1876 51.7248 13.0765 51.8915 13.0209Z" fill="white"/>
<path d="M23.1042 66.0943C19.7698 66.4278 16.8799 65.8165 14.3791 64.316C10.9891 62.3153 8.48826 58.8141 6.76547 54.3127L0.0966085 36.4179C-0.125687 35.8066 0.0410278 35.1397 0.541193 34.7506L4.3758 30.9161C4.54252 30.7493 4.70924 30.6382 4.87596 30.5826L13.3788 27.4149C14.1568 27.137 14.9904 27.526 15.2683 28.3041L22.1039 46.5879C22.4929 47.6438 23.0486 48.6441 23.8266 49.311C24.3824 49.8112 25.1049 50.1446 25.994 50.2002C26.1608 50.2002 26.3831 50.2002 26.5498 50.2002C26.5498 49.8667 26.4942 49.5333 26.4386 49.1999C26.3275 48.6997 26.2163 48.1995 25.994 47.6438L19.1584 29.36C18.9361 28.7487 19.1029 28.0818 19.603 27.6928L23.3265 23.9693C23.4932 23.747 23.7155 23.5803 23.9934 23.4692L32.4962 20.3014C33.2742 20.0236 34.1078 20.4126 34.3857 21.1906L41.1657 39.3077C42.2216 42.0864 42.7218 44.7539 42.6662 47.2548C42.6106 49.7556 42.0549 52.0897 40.8878 54.2015C39.9431 55.8687 38.1647 57.5915 36.3863 59.3143C35.9973 59.7033 35.5527 60.0923 35.2193 60.4258L35.1637 60.4813C34.4968 61.2038 33.7188 61.8707 32.8852 62.4264C30.0509 64.4271 26.6609 65.7053 23.1042 66.0943Z" fill="white"/>
<path fill-rule="evenodd" clip-rule="evenodd" d="M62.0615 50.1449L50.4466 42.4201L53.5587 50.8673H53.6143L49.6686 54.7575L41.1658 57.9808L29.0507 25.5812L32.9964 21.6355L40.4433 18.9124L51.3913 26.0814L48.5015 18.3566L52.3917 14.4109L60.8389 11.2432L73.0096 43.6427L69.0639 47.5885L62.0615 50.1449Z" fill="black"/>
<path fill-rule="evenodd" clip-rule="evenodd" d="M75.5659 5.29616C84.8468 1.85058 94.0165 7.07451 97.3509 16.0219C99.296 21.1903 98.907 26.7477 96.5173 31.138C96.4061 31.4159 96.2394 31.6937 96.0727 31.9716C92.2381 38.307 88.2924 40.919 84.4578 42.3639C74.899 45.9207 65.6182 40.5856 62.2282 31.6382C60.3387 26.5254 60.5054 21.5237 62.6728 17.1334C64.2289 13.9657 67.6189 9.96437 72.0092 7.07453C73.0651 6.35207 74.2877 5.74075 75.5659 5.29616ZM74.0099 19.3008C74.0099 19.2452 74.0654 19.1896 74.0654 19.134C74.6768 17.1334 76.6774 16.5221 79.1782 17.189C81.7346 17.8558 83.6797 20.2455 84.7356 23.0242C84.9579 23.58 85.1246 24.1357 85.2358 24.747C85.7359 27.0255 85.5137 28.6372 84.5689 29.5264C83.4574 30.5823 81.4012 30.6378 79.0671 29.6375C77.122 28.5816 75.6215 26.6365 74.7323 24.3024C74.0654 22.6352 73.8431 20.9124 74.0099 19.3008Z" fill="black"/>
<path fill-rule="evenodd" clip-rule="evenodd" d="M47.2233 33.7506L53.5587 50.8673L45.0559 54.0351L32.9963 21.6355L40.4433 18.9124L58.5048 30.694L52.3916 14.4109L60.8389 11.2432L73.0095 43.6427L66.0072 46.1991L47.2233 33.7506Z" fill="black"/>
<path fill-rule="evenodd" clip-rule="evenodd" d="M44.9447 30.9157L52.1693 50.1999L45.7228 52.5896L34.4413 22.3018L40.2765 20.1344L60.7277 33.5277L53.8366 15.0772L60.172 12.6875L71.5646 42.9753L66.1184 44.9759L44.9447 30.9157Z" fill="white"/>
<path fill-rule="evenodd" clip-rule="evenodd" d="M54.8369 15.5224L59.7274 13.6885L70.5088 42.5313L66.2296 44.0874L43.3887 28.9157L51.1691 49.7559L46.223 51.5899L35.4417 22.8026L40.1654 21.0242L62.2838 35.4734L54.8369 15.5224Z" fill="#F8DA27"/>
<path fill-rule="evenodd" clip-rule="evenodd" d="M75.5659 5.29616C84.8468 1.85058 94.0165 7.07451 97.3509 16.0219C100.685 24.9693 97.1842 34.9726 87.9589 38.4182C78.6781 41.8638 69.5084 36.6398 66.1739 27.6924C62.7839 18.6895 66.2851 8.74174 75.5659 5.29616ZM78.6225 13.4655C73.9543 15.1883 73.1207 19.9677 74.7323 24.3024C76.3439 28.5816 80.0674 31.6382 84.7912 29.9154C89.4594 28.137 90.293 23.4132 88.6814 19.0785C87.0141 14.7993 83.2907 11.7427 78.6225 13.4655Z" fill="black"/>
<path fill-rule="evenodd" clip-rule="evenodd" d="M75.955 6.35199C84.6245 3.1287 93.1829 8.01921 96.3506 16.4664C99.4627 24.8581 96.2395 34.1945 87.5699 37.4734C78.9004 40.6966 70.342 35.7506 67.1743 27.3589C64.0622 18.9117 67.2299 9.57527 75.955 6.35199ZM78.2335 12.4095C72.954 14.3546 71.8425 19.8009 73.6765 24.6914C75.5104 29.5819 79.8452 32.9163 85.1803 30.9712C90.4598 28.9706 91.5712 23.5799 89.7373 18.745C87.8478 13.8545 83.513 10.4644 78.2335 12.4095Z" fill="white"/>
<path fill-rule="evenodd" clip-rule="evenodd" d="M77.9556 11.688C83.4575 9.63173 88.348 12.9106 90.4042 18.4124C92.4604 23.9142 90.9044 29.5828 85.4025 31.639C79.9007 33.6952 74.9547 30.4164 72.8984 24.9145C70.8422 19.4683 72.4538 13.7442 77.9556 11.688ZM76.2328 7.07534C84.3466 4.01877 92.5716 8.52025 95.6281 16.6896C98.6847 24.859 95.4058 33.6396 87.3476 36.6406C79.2338 39.6416 71.0089 35.1957 67.9523 27.0264C64.8402 18.857 68.0635 10.0763 76.2328 7.07534Z" fill="#F8DA27"/>
<path fill-rule="evenodd" clip-rule="evenodd" d="M22.215 64.7055C15.5461 65.0945 10.8223 60.8153 8.21037 53.7575L1.5415 35.8627L5.43168 31.9169L13.9345 28.7492L20.7701 47.033C21.6593 49.3671 23.2709 51.4234 25.994 51.5345C26.7721 51.5901 27.828 51.4789 28.0502 50.4786C28.1058 49.3115 27.8835 48.1445 27.4389 47.033L20.6033 28.7492L24.5491 24.8035L32.9963 21.6357L39.7763 39.7528C41.7214 44.9768 41.7214 49.645 39.6096 53.424C38.6093 55.2024 36.2196 57.3142 34.219 59.3148C31.1624 62.5381 26.5498 64.4832 22.215 64.7055Z" fill="black"/>
<path fill-rule="evenodd" clip-rule="evenodd" d="M33.3854 58.7591L33.441 58.8702L31.6626 59.5371C31.607 59.5371 31.5515 59.5927 31.5515 59.5927C31.4959 59.5927 31.4403 59.6483 31.3847 59.6483L29.6064 60.3152L29.5508 60.204C21.048 62.427 15.2127 57.9811 12.1562 49.8117L5.4873 31.9169L13.9901 28.7492L20.8257 47.033C21.7149 49.3671 23.3265 51.4234 26.0496 51.5345C26.8277 51.5901 27.6613 51.4233 28.3837 51.1455C29.1618 50.8676 29.8842 50.423 30.44 49.8673C32.3851 48.0333 32.2739 45.4214 31.3847 43.0873L24.4936 24.8035L32.9964 21.6357L39.7764 39.7528C42.833 47.9778 41.3325 54.9245 33.3854 58.7591Z" fill="black"/>
<path fill-rule="evenodd" clip-rule="evenodd" d="M31.9404 58.2029L31.2179 58.4807C31.1624 58.4807 31.1068 58.5363 31.0512 58.5363C30.9956 58.5363 30.9401 58.5919 30.8845 58.5919L30.162 58.8697C21.7148 61.5373 16.1019 57.4804 13.1564 49.4778L6.87659 32.6389L13.2676 30.2492L19.7141 47.4771C20.7701 50.2558 22.7707 52.5899 25.9384 52.701C26.8832 52.7566 27.8279 52.5899 28.7171 52.2565C29.6063 51.923 30.4955 51.4228 31.1624 50.756C33.4409 48.5886 33.4409 45.532 32.385 42.7533L25.9384 25.5254L32.3294 23.1357L38.7204 40.1969C41.7214 48.1996 40.1098 54.7017 31.9404 58.2029Z" fill="white"/>
<path fill-rule="evenodd" clip-rule="evenodd" d="M7.87695 33.0831L12.823 31.2492L18.9917 47.7546C21.048 53.2009 25.3827 54.3124 28.995 52.9786C32.6073 51.5892 35.2193 47.9214 33.1075 42.4751L26.9388 25.9697L31.8849 24.1357L37.998 40.4745C40.4432 46.9766 40.4433 54.0901 30.9401 57.8135C30.8845 57.8135 30.829 57.8691 30.7734 57.8691C30.7178 57.8691 30.6622 57.9247 30.6067 57.9247C21.2703 61.2591 16.3242 55.924 13.8234 49.2551L7.87695 33.0831Z" fill="#F8DA27"/>
<path fill-rule="evenodd" clip-rule="evenodd" d="M49.7797 18.5789L52.8362 15.4668L54.559 20.0794L51.5025 23.1916L49.7797 18.5789ZM52.0582 24.7476L55.1148 21.6355L55.7816 23.3583L52.7251 26.4704L52.0582 24.7476Z" fill="#58585A"/>
<path fill-rule="evenodd" clip-rule="evenodd" d="M21.8816 29.0262L24.9381 25.9141L26.6609 30.5267L23.6044 33.6388L21.8816 29.0262ZM24.1601 35.1949L27.2167 32.0828L27.8836 33.8055L24.827 36.9177L24.1601 35.1949Z" fill="#58585A"/>
<path fill-rule="evenodd" clip-rule="evenodd" d="M6.6543 46.5321L9.71086 43.4199L11.4337 48.0325L8.37709 51.1447L6.6543 46.5321ZM8.98841 52.7007L12.045 49.5886L12.1561 49.8109C12.3784 50.3111 12.5451 50.8112 12.7674 51.3114L9.65529 54.4235L8.98841 52.7007Z" fill="#58585A"/>
<path fill-rule="evenodd" clip-rule="evenodd" d="M82.4015 17.6336L85.5136 14.5215C86.6251 15.4107 87.5699 16.6889 88.2367 18.1338L85.1802 21.1904C84.5133 19.8566 83.5685 18.5784 82.4015 17.6336ZM85.8471 22.6908L88.848 19.6343C89.0703 20.3012 89.1815 20.9125 89.2926 21.5794L86.3472 24.5248V24.4692C86.2361 23.9135 86.0694 23.3021 85.8471 22.6908Z" fill="#58585A"/>
</svg>
