<svg width="26" height="32" viewBox="0 0 26 32" fill="none" xmlns="http://www.w3.org/2000/svg">
<rect x="3.03125" y="1.10938" width="19" height="29" rx="1.5" fill="white" stroke="#D21D49"/>
<rect x="3.03125" y="1.10938" width="19" height="29" rx="1.5" fill="white" stroke="#D21D49"/>
<path d="M18.9079 18.5576C17.3477 21.9508 15.1963 24.6557 13.0029 26.294C10.7921 27.9454 8.64882 28.4427 7.01431 27.6912C5.3798 26.9396 4.36225 24.9889 4.17666 22.2356C3.99253 19.5041 4.64541 16.1102 6.20562 12.717C7.76583 9.32384 9.91726 6.61893 12.1106 4.98066C14.3215 3.32931 16.4647 2.83191 18.0992 3.58347C19.7337 4.33504 20.7513 6.28579 20.9369 9.03905C21.121 11.7705 20.4681 15.1645 18.9079 18.5576Z" stroke="#D21D49"/>
<path d="M10.8571 17.02H9.37306C9.37706 17.436 9.56106 17.712 9.92506 17.712C10.1531 17.712 10.3131 17.584 10.3891 17.296L10.8451 17.428C10.7091 17.848 10.4091 18.064 9.92106 18.064C9.26506 18.064 8.88106 17.644 8.88106 16.924C8.88106 16.208 9.28506 15.764 9.87706 15.764C10.4371 15.764 10.8571 16.172 10.8571 16.916V17.02ZM9.38106 16.688H10.3651C10.3411 16.32 10.1851 16.112 9.88506 16.112C9.58106 16.112 9.40506 16.336 9.38106 16.688ZM12.3166 15.764L12.2846 16.236C12.0206 16.236 11.8006 16.408 11.6606 16.792V18.008H11.1646V15.812H11.6366V16.352C11.7926 15.92 12.0206 15.764 12.3166 15.764ZM13.683 15.764L13.651 16.236C13.387 16.236 13.167 16.408 13.027 16.792V18.008H12.531V15.812H13.003V16.352C13.159 15.92 13.387 15.764 13.683 15.764ZM14.7614 15.764C15.3534 15.764 15.7534 16.196 15.7534 16.908C15.7534 17.62 15.3574 18.064 14.7574 18.064C14.1574 18.064 13.7654 17.632 13.7654 16.92C13.7654 16.208 14.1654 15.764 14.7614 15.764ZM14.7614 16.128C14.4374 16.128 14.2814 16.408 14.2814 16.912C14.2814 17.42 14.4334 17.7 14.7574 17.7C15.0814 17.7 15.2374 17.424 15.2374 16.912C15.2374 16.408 15.0854 16.128 14.7614 16.128ZM17.2205 15.764L17.1885 16.236C16.9245 16.236 16.7045 16.408 16.5645 16.792V18.008H16.0685V15.812H16.5405V16.352C16.6965 15.92 16.9245 15.764 17.2205 15.764Z" fill="#D21D49"/>
</svg>
